<?xml version="1.0" encoding="utf-8"?>
<!-- Generator: Adobe Illustrator 28.0.0, SVG Export Plug-In . SVG Version: 6.00 Build 0)  -->
<svg version="1.1" id="Layer_1" xmlns="http://www.w3.org/2000/svg" xmlns:xlink="http://www.w3.org/1999/xlink" x="0px" y="0px"
	 viewBox="0 0 100.47 100" style="enable-background:new 0 0 100.47 100;" xml:space="preserve">
<style type="text/css">
	.st0{fill:#FFFFFF;stroke:#414042;stroke-width:0.75;stroke-miterlimit:10;}
	.st1{fill:#414042;}
	.st2{fill:#C2B59B;}
	.st3{fill:#BE1E2D;}
</style>
<circle class="st0" cx="50.47" cy="50" r="50"/>
<circle class="st1" cx="50.29" cy="50.04" r="46.15"/>
<polygon class="st2" points="53.8,57.65 62.09,73.99 58.15,75.99 51.33,62.53 44.5,75.99 40.56,73.99 48.85,57.65 29.98,20.45 
	33.92,18.45 51.33,52.77 68.73,18.45 72.67,20.45 "/>
<path class="st3" d="M53.76,76.94l6.92,3.51l23.65-46.65c0.33-0.64,0.07-1.42-0.57-1.75l-4.6-2.33c-0.64-0.33-1.43-0.07-1.75,0.57
	L53.76,76.94z"/>
<path class="st3" d="M48.89,76.94l-6.9,3.5L18.31,33.81c-0.33-0.64-0.07-1.43,0.57-1.75l4.58-2.32c0.64-0.32,1.42-0.07,1.75,0.57
	L48.89,76.94z"/>
</svg>
